<?xml version="1.0" encoding="UTF-8" standalone="no"?>
<svg
   xmlns:dc="http://purl.org/dc/elements/1.1/"
   xmlns:cc="http://creativecommons.org/ns#"
   xmlns:rdf="http://www.w3.org/1999/02/22-rdf-syntax-ns#"
   xmlns:svg="http://www.w3.org/2000/svg"
   xmlns="http://www.w3.org/2000/svg"
   xmlns:sodipodi="http://sodipodi.sourceforge.net/DTD/sodipodi-0.dtd"
   xmlns:inkscape="http://www.inkscape.org/namespaces/inkscape"
   version="1.1"
   id="Capa_1"
   x="0px"
   y="0px"
   width="512px"
   height="512px"
   viewBox="0 0 512 512"
   style="enable-background:new 0 0 512 512;"
   xml:space="preserve"
   class=""
   inkscape:version="0.48.5 r10040"
   sodipodi:docname="blue-map-marker.svg"
   inkscape:export-filename="/Users/stevebennett/odev/freelancing/jianbin/green-map/src/assets/markers/blue-map-marker.png"
   inkscape:export-xdpi="11.25"
   inkscape:export-ydpi="11.25"><metadata
     id="metadata13"><rdf:RDF><cc:Work
         rdf:about=""><dc:format>image/svg+xml</dc:format><dc:type
           rdf:resource="http://purl.org/dc/dcmitype/StillImage" /><dc:title></dc:title></cc:Work></rdf:RDF></metadata><defs
     id="defs11" /><sodipodi:namedview
     pagecolor="#ffffff"
     bordercolor="#666666"
     borderopacity="1"
     objecttolerance="10"
     gridtolerance="10"
     guidetolerance="10"
     inkscape:pageopacity="0"
     inkscape:pageshadow="2"
     inkscape:window-width="640"
     inkscape:window-height="480"
     id="namedview9"
     showgrid="false"
     inkscape:zoom="0.4609375"
     inkscape:cx="256"
     inkscape:cy="256"
     inkscape:window-x="0"
     inkscape:window-y="23"
     inkscape:window-maximized="0"
     inkscape:current-layer="Capa_1" /><g
     id="g3"><g
       id="g5"><path
         d="M256,0C167.641,0,96,71.625,96,160c0,24.75,5.625,48.219,15.672,69.125C112.234,230.313,256,512,256,512l142.594-279.375   C409.719,210.844,416,186.156,416,160C416,71.625,344.375,0,256,0z M256,256c-53.016,0-96-43-96-96s42.984-96,96-96   c53,0,96,43,96,96S309,256,256,256z"
         data-original="#000000"
         class="active-path"
         data-old_color="#35afe4"
         fill="#35afe4"
         id="path7" /></g></g></svg>